<svg width="21" height="20" viewBox="0 0 21 20" fill="none" xmlns="http://www.w3.org/2000/svg">
<path d="M19.8868 17.2908L16.0803 13.7774C17.2339 12.3835 17.8666 10.6928 17.8669 8.90872C17.8669 6.75872 16.9596 4.73726 15.3122 3.217C13.6651 1.69674 11.4753 0.859375 9.14558 0.859375C6.81617 0.859375 4.62603 1.69674 2.97891 3.217C-0.421355 6.35565 -0.421355 11.4623 2.97891 14.6004C4.62603 16.121 6.81617 16.9583 9.14558 16.9583C11.0785 16.9581 12.9103 16.3741 14.4206 15.3093L18.2271 18.8227C18.456 19.0343 18.7566 19.1401 19.0569 19.1401C19.3573 19.1401 19.6579 19.0343 19.8868 18.8227C20.3453 18.3998 20.3453 17.7137 19.8868 17.2908ZM4.63864 13.0686C2.15363 10.7749 2.15392 7.04278 4.63864 4.7489C5.84245 3.63806 7.44315 3.02604 9.14558 3.02604C10.8483 3.02604 12.4487 3.63806 13.6525 4.7489C14.8563 5.86 15.5194 7.33742 15.5194 8.90872C15.5194 10.4803 14.8563 11.9574 13.6525 13.0686C12.4487 14.1797 10.8483 14.7917 9.14558 14.7917C7.44315 14.7917 5.84245 14.1797 4.63864 13.0686Z" fill="white"/>
</svg>
