<svg width="19" height="17" viewBox="0 0 19 17" fill="none" xmlns="http://www.w3.org/2000/svg">
<path d="M2.3904 16.7146H4.42357C5.18324 16.7146 5.81802 16.199 6.01463 15.5016C6.38947 15.5469 6.7595 15.6212 7.11543 15.7584C7.8737 16.0099 8.78399 16.5604 10.2847 16.5876L14.9626 16.6768C14.9769 16.6768 14.9905 16.6772 15.004 16.6772C15.9967 16.6772 16.8638 15.9475 17.0301 14.9648L18.2404 7.79447C18.3424 7.18859 18.1705 6.57486 17.7687 6.10992C17.3669 5.64463 16.7624 5.38771 16.1723 5.39913L12.4149 5.48156C12.7532 4.55454 12.9887 3.52297 13.0144 2.85322C13.0401 2.17775 12.7953 1.53655 12.3243 1.0477C11.8554 0.560641 11.1989 0.28125 10.5031 0.28125C9.85296 0.28125 9.29846 0.746901 9.18499 1.38739C8.97732 2.54671 7.98964 4.60199 6.87279 5.73276C6.63051 6.0101 6.31954 6.21875 5.97181 6.34029C5.73435 5.71372 5.13266 5.26497 4.42357 5.26497H2.3904C1.4748 5.26497 0.730469 6.00965 0.730469 6.9249V15.0547C0.730469 15.97 1.4748 16.7146 2.3904 16.7146ZM7.94325 6.72651C9.11005 5.54828 10.2869 3.33885 10.6044 1.746C10.8585 1.76563 11.0933 1.87588 11.2717 2.06107C11.4644 2.26125 11.5643 2.5228 11.5543 2.79719C11.5343 3.31102 11.3238 4.20878 11.0419 4.97987C10.8763 5.43374 10.9434 5.93865 11.2224 6.33044C11.4986 6.71759 11.9396 6.92704 12.4256 6.93596L16.2022 6.86067C16.2065 6.86031 16.2108 6.86031 16.2158 6.86031C16.4499 6.86031 16.5962 6.98841 16.6625 7.06549C16.731 7.14434 16.8395 7.31241 16.7988 7.55148L15.5885 14.7214C15.5407 15.0051 15.2909 15.2156 15.004 15.2156C14.9997 15.2156 14.9912 15.2149 14.9919 15.2153L10.3118 15.1261C9.12948 15.1057 8.44419 14.6665 7.64138 14.3946C7.13755 14.2005 6.61588 14.0752 6.0835 14.021V7.84907L6.42747 7.73167C7.02551 7.52793 7.56002 7.16861 7.94325 6.72651ZM2.19201 6.9249C2.19201 6.81536 2.28121 6.72651 2.3904 6.72651H4.42357C4.53275 6.72651 4.62196 6.81535 4.62196 6.9249V15.0547C4.62196 15.1643 4.53275 15.2531 4.42357 15.2531H2.3904C2.28121 15.2531 2.19201 15.1643 2.19201 15.0547V6.9249Z" fill="#202B49"/>
</svg>
