<svg width="13" height="21" viewBox="0 0 13 21" fill="none" xmlns="http://www.w3.org/2000/svg">
<path d="M5.03355 20.024H7.90993C8.30709 20.024 8.62903 19.6855 8.62903 19.2678C8.62903 18.8502 8.30709 18.5117 7.90993 18.5117H5.03355C4.63639 18.5117 4.31445 18.8502 4.31445 19.2678C4.31445 19.6855 4.63639 20.024 5.03355 20.024Z" fill="#0D5E77"/>
<path d="M6.47192 0.667969C6.07476 0.667969 5.75282 1.00649 5.75282 1.4241V2.23448C3.31668 2.60249 1.43821 4.81133 1.43821 7.47313V12.1217C1.43821 12.3881 1.32405 12.6305 1.1542 12.7249C0.442248 13.1202 0 13.8892 0 14.732C0 15.9828 0.967768 17.0004 2.15731 17.0004H10.7865C11.9761 17.0004 12.9438 15.9828 12.9438 14.732C12.9438 13.8892 12.5016 13.1202 11.7897 12.7249C11.6198 12.6306 11.5056 12.3882 11.5056 12.1217V7.47313C11.5056 4.81133 9.62717 2.60249 7.19103 2.23448V1.4241C7.19103 1.00649 6.86908 0.667969 6.47192 0.667969V0.667969ZM10.0674 7.47313V12.1217C10.0674 12.9588 10.47 13.7023 11.1181 14.0622C11.3571 14.1949 11.5056 14.4515 11.5056 14.732C11.5056 15.1489 11.1831 15.4881 10.7865 15.4881H2.15731C1.76079 15.4881 1.43821 15.1489 1.43821 14.732C1.43821 14.4515 1.5867 14.1949 1.82573 14.0622C2.47382 13.7023 2.87641 12.9588 2.87641 12.1217V7.47313C2.87641 5.38848 4.48936 3.69249 6.47192 3.69249C8.45449 3.69249 10.0674 5.38848 10.0674 7.47313Z" fill="#0D5E77"/>
</svg>
