<svg width="33" height="33" viewBox="0 0 33 33" fill="none" xmlns="http://www.w3.org/2000/svg">
<path fill-rule="evenodd" clip-rule="evenodd" d="M7.22358 2.0625C6.40373 2.0625 5.61741 2.38889 5.03733 2.96897C4.45777 3.54853 4.13086 4.33898 4.13086 5.15934V27.8443C4.13086 28.6646 4.45777 29.4551 5.03733 30.0346C5.61741 30.6147 6.40373 30.9411 7.22358 30.9411H25.7881C26.6085 30.9411 27.399 30.6147 27.9785 30.0346C28.5586 29.4551 28.8809 28.6646 28.8809 27.8443V5.15934C28.8809 4.33898 28.5586 3.54853 27.9785 2.96897C27.399 2.38889 26.6085 2.0625 25.7881 2.0625H7.22358V2.0625ZM7.22358 4.12706H25.7881C26.0635 4.12706 26.3244 4.23534 26.5183 4.42922C26.7116 4.62258 26.8204 4.88348 26.8204 5.15934V27.8443C26.8204 28.1201 26.7116 28.381 26.5183 28.5744C26.3249 28.7683 26.0635 28.8765 25.7881 28.8765H7.22358C6.94823 28.8765 6.69145 28.7683 6.49758 28.5744C6.30422 28.381 6.19542 28.1201 6.19542 27.8443V5.15934C6.19542 4.88348 6.30422 4.62258 6.49758 4.42922C6.69145 4.23534 6.94823 4.12706 7.22358 4.12706V4.12706Z" fill="white"/>
<path fill-rule="evenodd" clip-rule="evenodd" d="M12.8975 9.28125C12.3329 9.28073 11.8673 9.74428 11.8652 10.3094V10.3099C11.8652 10.8761 12.3308 11.3417 12.8965 11.3417H20.1163C20.6819 11.3417 21.1475 10.8761 21.1475 10.3099V10.3094C21.146 9.74428 20.6804 9.28073 20.1152 9.28125H12.8975Z" fill="white"/>
<path fill-rule="evenodd" clip-rule="evenodd" d="M12.8975 15.4688C12.8975 15.4688 12.897 15.4688 12.8965 15.4688C12.3308 15.4688 11.8652 15.9344 11.8652 16.5V16.5021C11.8652 17.0682 12.3308 17.5333 12.8965 17.5333H20.1163C20.6819 17.5333 21.1475 17.0682 21.1475 16.5021V16.5C21.1475 15.9344 20.6819 15.4688 20.1163 15.4688C20.1157 15.4688 20.1157 15.4688 20.1152 15.4688H12.8975Z" fill="white"/>
<path fill-rule="evenodd" clip-rule="evenodd" d="M12.8975 21.6562C12.8975 21.6562 12.897 21.6562 12.8965 21.6562C12.3308 21.6562 11.8652 22.1219 11.8652 22.6875V22.6885C11.8673 23.2537 12.3329 23.7172 12.8975 23.7167H20.1152C20.6804 23.7172 21.146 23.2537 21.1475 22.6885C21.1475 22.6885 21.1475 22.688 21.1475 22.6875C21.1475 22.1219 20.6819 21.6562 20.1163 21.6562C20.1157 21.6562 20.1157 21.6562 20.1152 21.6562H12.8975Z" fill="white"/>
</svg>
