<svg width="16" height="18" viewBox="0 0 16 18" fill="none" xmlns="http://www.w3.org/2000/svg">
<path d="M8.00114 9.47656C3.99099 9.47656 0.728516 12.739 0.728516 16.7492V17.8405H15.2738V16.7492C15.2738 12.7391 12.0113 9.47656 8.00114 9.47656ZM14.241 16.8078H1.76124V16.7492C1.76124 13.3085 4.56045 10.5093 8.00114 10.5093C11.4418 10.5093 14.241 13.3085 14.241 16.7492V16.8078Z" fill="#D1D1D1"/>
<path d="M7.99921 0.160156C5.83282 0.160156 4.07031 2.03254 4.07031 4.33402C4.07031 6.63549 5.83282 8.50788 7.99921 8.50788C10.1656 8.50788 11.9281 6.63549 11.9281 4.33402C11.9281 2.03254 10.1656 0.160156 7.99921 0.160156ZM7.99921 7.47519C6.40224 7.47519 5.10304 6.06607 5.10304 4.33405C5.10304 2.60203 6.40224 1.19288 7.99921 1.19288C9.59614 1.19288 10.8954 2.602 10.8954 4.33402C10.8954 6.06604 9.59614 7.47519 7.99921 7.47519Z" fill="#D1D1D1"/>
</svg>
