<svg width="16" height="16" viewBox="0 0 16 16" fill="none" xmlns="http://www.w3.org/2000/svg">
<path d="M14.6439 1.67724C12.8903 -0.0385743 10.0869 -0.0382011 8.33369 1.67809L0.980778 9.03104C-0.348776 10.3919 -0.323367 12.573 1.03753 13.9025C2.37604 15.2102 4.51374 15.2102 5.85225 13.9025L12.5104 7.24432C13.376 6.37875 13.376 4.97534 12.5104 4.10977C11.6449 3.24419 10.2415 3.24419 9.37588 4.10977L3.00717 10.4784C2.78503 10.7084 2.79141 11.075 3.02142 11.2971C3.24579 11.5138 3.60148 11.5138 3.82586 11.2971L10.1945 4.92842C10.6169 4.52385 11.2872 4.53826 11.6917 4.96058C12.0841 5.37015 12.0841 6.0161 11.6917 6.42566L5.03359 13.0838C4.13413 13.9705 2.68614 13.9601 1.79947 13.0606C0.92175 12.1703 0.92175 10.7401 1.79947 9.84969L9.15239 2.49674C10.4621 1.18653 12.586 1.18615 13.8962 2.49586C15.2064 3.80557 15.2068 5.92946 13.8971 7.23967L6.54413 14.5926C6.30127 14.8006 6.27297 15.1661 6.48096 15.409C6.68895 15.6518 7.05445 15.6801 7.29731 15.4721C7.31997 15.4527 7.34107 15.4316 7.36048 15.409L14.7134 8.05602C16.4557 6.27538 16.4246 3.41948 14.6439 1.67724Z" fill="#DA9F73"/>
</svg>
