<svg width="35" height="35" viewBox="0 0 35 35" fill="none" xmlns="http://www.w3.org/2000/svg">
<path d="M17.3554 16.2772C18.4243 16.2772 19.4692 15.9602 20.3579 15.3663C21.2467 14.7725 21.9393 13.9284 22.3483 12.9408C22.7573 11.9533 22.8643 10.8666 22.6557 9.81826C22.4471 8.76991 21.9323 7.80697 21.1764 7.05122C20.4205 6.29547 19.4574 5.78086 18.409 5.57246C17.3606 5.36406 16.274 5.47124 15.2865 5.88044C14.2991 6.28964 13.4551 6.98248 12.8614 7.87134C12.2677 8.76021 11.951 9.80517 11.9512 10.8741C11.9529 12.3067 12.5229 13.6802 13.536 14.6931C14.5492 15.7061 15.9227 16.2757 17.3554 16.2772V16.2772ZM17.3554 7.65735C17.9916 7.65735 18.6135 7.846 19.1425 8.19946C19.6715 8.55292 20.0838 9.0553 20.3272 9.64308C20.5707 10.2309 20.6344 10.8776 20.5103 11.5016C20.3862 12.1256 20.0798 12.6988 19.6299 13.1486C19.1801 13.5985 18.6069 13.9049 17.9829 14.029C17.359 14.1531 16.7122 14.0894 16.1244 13.8459C15.5366 13.6025 15.0342 13.1902 14.6808 12.6612C14.3273 12.1322 14.1387 11.5103 14.1387 10.8741C14.1398 10.0213 14.4791 9.20378 15.0821 8.60078C15.6851 7.99778 16.5026 7.6585 17.3554 7.65735V7.65735Z" fill="white"/>
<path d="M7.14453 19.4531C7.96656 19.4531 8.77013 19.2094 9.45362 18.7527C10.1371 18.296 10.6698 17.6469 10.9844 16.8874C11.299 16.1279 11.3813 15.2923 11.2209 14.486C11.0605 13.6798 10.6647 12.9392 10.0834 12.358C9.50218 11.7767 8.76161 11.3809 7.95537 11.2205C7.14914 11.0601 6.31346 11.1424 5.554 11.457C4.79455 11.7716 4.14543 12.3043 3.68874 12.9878C3.23204 13.6713 2.98828 14.4748 2.98828 15.2969C2.98828 16.3992 3.42617 17.4563 4.20562 18.2358C4.98507 19.0152 6.04222 19.4531 7.14453 19.4531ZM7.14453 13.3281C7.53391 13.3281 7.91455 13.4436 8.23831 13.6599C8.56207 13.8762 8.81441 14.1837 8.96342 14.5435C9.11243 14.9032 9.15142 15.2991 9.07545 15.681C8.99949 16.0629 8.81198 16.4137 8.53665 16.689C8.26131 16.9643 7.91051 17.1518 7.52861 17.2278C7.14671 17.3038 6.75086 17.2648 6.39112 17.1158C6.03138 16.9668 5.7239 16.7144 5.50757 16.3907C5.29125 16.0669 5.17578 15.6863 5.17578 15.2969C5.17578 14.7747 5.3832 14.274 5.75241 13.9048C6.12163 13.5355 6.62239 13.3281 7.14453 13.3281V13.3281Z" fill="white"/>
<path d="M27.5625 19.4531C28.3845 19.4531 29.1881 19.2094 29.8716 18.7527C30.5551 18.296 31.0878 17.6469 31.4024 16.8874C31.717 16.1279 31.7993 15.2923 31.6389 14.486C31.4785 13.6798 31.0827 12.9392 30.5014 12.358C29.9202 11.7767 29.1796 11.3809 28.3733 11.2205C27.5671 11.0601 26.7314 11.1424 25.972 11.457C25.2125 11.7716 24.5634 12.3043 24.1067 12.9878C23.65 13.6713 23.4062 14.4748 23.4062 15.2969C23.4062 16.3992 23.8441 17.4563 24.6236 18.2358C25.403 19.0152 26.4602 19.4531 27.5625 19.4531ZM27.5625 13.3281C27.9519 13.3281 28.3325 13.4436 28.6563 13.6599C28.98 13.8762 29.2324 14.1837 29.3814 14.5435C29.5304 14.9032 29.5694 15.2991 29.4934 15.681C29.4175 16.0629 29.23 16.4137 28.9546 16.689C28.6793 16.9643 28.3285 17.1518 27.9466 17.2278C27.5647 17.3038 27.1688 17.2648 26.8091 17.1158C26.4494 16.9668 26.1419 16.7144 25.9255 16.3907C25.7092 16.0669 25.5938 15.6863 25.5938 15.2969C25.5938 14.7747 25.8012 14.274 26.1704 13.9048C26.5396 13.5355 27.0404 13.3281 27.5625 13.3281V13.3281Z" fill="white"/>
<path d="M27.708 21.6466C26.7492 21.6529 25.8071 21.8984 24.9671 22.3608C24.1685 21.0965 23.0678 20.0509 21.7642 19.3183C20.4606 18.5856 18.9952 18.1889 17.5 18.1641C16.0049 18.1889 14.5394 18.5856 13.2359 19.3183C11.9323 20.0509 10.8316 21.0965 10.033 22.3608C9.19299 21.8984 8.25089 21.6529 7.29205 21.6466C5.57147 21.7305 3.95398 22.4918 2.7927 23.7641C1.63141 25.0365 1.02066 26.7166 1.09377 28.4377C1.09377 28.7277 1.20901 29.0059 1.41413 29.2111C1.61924 29.4162 1.89744 29.5314 2.18752 29.5314C2.4776 29.5314 2.7558 29.4162 2.96092 29.2111C3.16604 29.0059 3.28127 28.7277 3.28127 28.4377C3.20959 27.2969 3.59044 26.174 4.34124 25.3122C5.09204 24.4504 6.15228 23.9193 7.29205 23.8341C7.89648 23.8387 8.48988 23.9964 9.0169 24.2923C8.50143 25.5914 8.23753 26.9766 8.23924 28.3742C8.23924 28.6643 8.35448 28.9425 8.55959 29.1476C8.76471 29.3527 9.04291 29.468 9.33299 29.468C9.62307 29.468 9.90127 29.3527 10.1064 29.1476C10.3115 28.9425 10.4267 28.6643 10.4267 28.3742C10.4267 23.95 13.5986 20.3516 17.5 20.3516C21.4014 20.3516 24.5733 23.95 24.5733 28.3742C24.5733 28.6643 24.6885 28.9425 24.8937 29.1476C25.0988 29.3527 25.377 29.468 25.6671 29.468C25.9571 29.468 26.2353 29.3527 26.4405 29.1476C26.6456 28.9425 26.7608 28.6643 26.7608 28.3742C26.7625 26.9766 26.4986 25.5914 25.9831 24.2923C26.5102 23.9964 27.1036 23.8387 27.708 23.8341C28.8478 23.9193 29.908 24.4504 30.6588 25.3122C31.4096 26.174 31.7905 27.2969 31.7188 28.4377C31.7188 28.7277 31.834 29.0059 32.0391 29.2111C32.2442 29.4162 32.5224 29.5314 32.8125 29.5314C33.1026 29.5314 33.3808 29.4162 33.5859 29.2111C33.791 29.0059 33.9063 28.7277 33.9063 28.4377C33.9794 26.7166 33.3686 25.0365 32.2074 23.7641C31.0461 22.4918 29.4286 21.7305 27.708 21.6466V21.6466Z" fill="white"/>
</svg>
