<svg width="33" height="33" viewBox="0 0 33 33" fill="none" xmlns="http://www.w3.org/2000/svg">
<path d="M32.04 30.4303C31.76 30.1503 31.34 30.1503 31.06 30.4303C30.605 30.8853 29.765 30.8853 29.31 30.4303C28.645 29.7653 27.735 29.5553 26.895 29.7303C28.54 27.4903 29.555 24.7603 29.765 21.8903C29.835 20.9803 29.275 20.1053 28.365 19.7903L25.95 18.8803V12.7203C25.95 11.5653 25.005 10.6203 23.85 10.6203H23.15V7.12032H25.25C25.635 7.12032 25.95 6.80531 25.95 6.42031C25.95 6.03531 25.635 5.72031 25.25 5.72031H22.45H18.95V3.27031C18.95 1.90531 17.865 0.820312 16.5 0.820312C15.135 0.820312 14.05 1.90531 14.05 3.27031V5.72031H10.55H7.75C7.365 5.72031 7.05 6.03531 7.05 6.42031C7.05 6.80531 7.365 7.12032 7.75 7.12032H9.85V10.6203H9.15C7.995 10.6203 7.05 11.5653 7.05 12.7203V18.8803L4.635 19.7553C3.76 20.0703 3.2 20.9453 3.235 21.8553C3.445 24.7253 4.46 27.4553 6.105 29.6953C5.93 29.6603 5.755 29.6253 5.545 29.6253C4.845 29.6253 4.18 29.9053 3.69 30.3953C3.235 30.8503 2.395 30.8503 1.94 30.3953C1.66 30.1153 1.24 30.1153 0.96 30.3953C0.68 30.6753 0.68 31.0953 0.96 31.3753C1.45 31.8653 2.115 32.1453 2.815 32.1453C3.515 32.1453 4.18 31.8653 4.67 31.3753C5.125 30.9203 5.965 30.9203 6.42 31.3753C7.015 31.9703 7.855 32.2503 8.695 32.1103H8.765H8.8H8.835C9.325 32.0053 9.78 31.7603 10.13 31.4103C10.585 30.9553 11.425 30.9553 11.88 31.4103C12.37 31.9003 13.035 32.1803 13.735 32.1803C14.435 32.1803 15.1 31.9003 15.59 31.4103C16.08 30.9203 16.85 30.9203 17.34 31.4103C18.355 32.4253 20.035 32.4253 21.05 31.4103C21.54 30.9203 22.31 30.9203 22.8 31.4103C23.15 31.7603 23.64 32.0053 24.13 32.1103H24.165C24.34 32.1453 24.515 32.1453 24.655 32.1453C25.355 32.1453 26.02 31.8653 26.51 31.3753C27 30.8853 27.77 30.8853 28.26 31.3753C28.75 31.8653 29.415 32.1453 30.115 32.1453C30.815 32.1453 31.48 31.8653 31.97 31.3753C32.32 31.1303 32.32 30.7103 32.04 30.4303V30.4303ZM15.45 3.27031C15.45 2.67531 15.905 2.22031 16.5 2.22031C17.095 2.22031 17.55 2.67531 17.55 3.27031V5.72031H15.45V3.27031ZM11.25 7.12032H14.75H18.25H21.75V10.6203H11.25V7.12032ZM8.45 12.7203C8.45 12.3353 8.765 12.0203 9.15 12.0203H23.85C24.235 12.0203 24.55 12.3353 24.55 12.7203V18.3903L16.745 15.5553C16.71 15.5553 16.71 15.5553 16.675 15.5553H16.64C16.57 15.5553 16.465 15.5553 16.395 15.5553H16.36C16.325 15.5553 16.325 15.5553 16.29 15.5553L8.45 18.3903V12.7203ZM20.105 30.4303C19.615 30.9203 18.845 30.9203 18.355 30.4303C17.34 29.4153 15.66 29.4153 14.645 30.4303C14.19 30.8853 13.35 30.8853 12.895 30.4303C12.405 29.9403 11.74 29.6603 11.04 29.6603C10.34 29.6603 9.675 29.9403 9.185 30.4303C9.08 30.5353 8.975 30.6053 8.835 30.6753C6.42 28.4353 4.88 25.2153 4.635 21.7853C4.6 21.5053 4.81 21.1903 5.09 21.0853L15.8 17.2003V26.7203C15.8 27.1053 16.115 27.4203 16.5 27.4203C16.885 27.4203 17.2 27.1053 17.2 26.7203V17.2003L27.91 21.0503C28.19 21.1553 28.4 21.4353 28.365 21.7503C28.12 25.1803 26.615 28.4003 24.165 30.6403C24.06 30.5703 23.92 30.5003 23.815 30.3953C22.8 29.3803 21.12 29.3803 20.105 30.4303V30.4303Z" fill="white"/>
</svg>
