<svg id="Слой_1" data-name="Слой 1" xmlns="http://www.w3.org/2000/svg" viewBox="0 0 115 47" width="115" height="47">
<style type="text/css">
	.st0{fill-rule:evenodd;clip-rule:evenodd;fill:#007A53;}
	.st1{fill-rule:evenodd;clip-rule:evenodd;fill:#FFFFFF;}
	.st2{fill:#DA291C;}
	.st3{fill:#007A53;}
	.st4{fill:#FFFFFF;}
</style>
<path class="st0" d="M106.37,21.34c-7.42-4.28-24.55-8.63-31.79-9.21l0,0l-5.45-0.44l0,0c-5.82-0.47-9.03-0.73-11.49-0.73
	c-2.46,0-16.93,1.17-16.93,1.17l0,0c-7.25,0.57-24.37,4.93-31.79,9.21c-3.48,2.01-3.86,3.42-3.86,8.15l0,0v12.05l0,0
	c0,0.98,0.12,2.41,1.14,3.49c1.18,1.25,2.7,1.25,4.47,1.25l0,0h0.13h93.69h0.13l0,0c1.77,0,3.29,0,4.47-1.25
	c1.02-1.08,1.14-2.51,1.14-3.49l0,0V29.49l0,0C110.23,24.76,109.85,23.35,106.37,21.34L106.37,21.34L106.37,21.34L106.37,21.34z"/>
<path class="st1" d="M109.07,41.54c0,0.76-0.08,1.86-0.8,2.62c-0.84,0.89-2.02,0.89-3.65,0.89l0,0h-0.13H10.8h-0.13l0,0
	c-1.63,0-2.81,0-3.65-0.89c-0.72-0.76-0.8-1.86-0.8-2.62l0,0V29.49l0,0c0-4.57,0.4-5.43,3.26-7.08c7.3-4.21,24.18-8.49,31.33-9.06
	l0,0l5.45-0.44l0,0c5.8-0.66,9.02-0.88,11.43-0.88c2.41,0,6.06,0.15,11.36,0.88l0,0l5.45,0.44l0,0c7.15,0.57,24.03,4.85,31.33,9.06
	c2.86,1.65,3.26,2.51,3.26,7.08l0,0V41.54L109.07,41.54L109.07,41.54z"/>
<path class="st2" d="M80.41,7.98l-0.68-0.21c-0.19-0.05-4.57-1.24-6.02-1.28l0.32-1.75C74.05,4.61,74,4.48,73.9,4.34
	c-0.62-0.84-7.07-2.7-16.34-2.7c-9.14,0-15.84,1.72-16.47,2.48c-0.1,0.12-0.14,0.24-0.11,0.37l0.44,1.99
	c-1.46,0.04-5.83,1.23-6.02,1.28l-0.68,0.21l0.41,0.47l2.59,2.75l-0.56,4.66L37.1,16.5l0.59-0.15c0.54-0.13,1.15-0.31,1.79-0.5
	c1.48-0.44,3.16-0.94,4.34-0.94c0.01,0,0.88-0.02,1.74-0.09c0.3-0.03,0.47-0.11,0.5-0.27c0.1-0.4-0.91-1.08-1.17-1.25
	c0.45-0.4,7.44-1.16,12.67-1.13h0c0.08,0,0.15,0,0.23,0c5.22,0,12.05,0.75,12.45,1.13c-0.26,0.17-1.27,0.85-1.18,1.26
	c0.04,0.15,0.2,0.24,0.5,0.27c0.86,0.08,1.73,0.09,1.74,0.09c1.18,0,2.85,0.5,4.34,0.94c0.64,0.19,1.25,0.37,1.79,0.5l0.59,0.15
	l-0.63-5.3L80,8.45L80.41,7.98z"/>
<path class="st3" d="M71.27,12.85l-0.14-0.11c-0.55-0.53-7.51-1.37-13.43-1.29h0c-5.93-0.08-13.32,0.89-13.72,1.46l-0.06,0.07
	l-0.05-0.19c-0.02-0.08-1.62-7.53-1.72-7.92c-0.01-0.04,0.03-0.12,0.09-0.19c0.58-0.74,7.34-2.2,15.46-2.2
	c3.59,0,7.33,0.4,10.53,0.98c2.56,0.46,4.39,0.96,4.7,1.36c0.04,0.06,0.03,0.17,0.02,0.23c-0.09,0.39-1.51,6.99-1.53,7.06
	L71.27,12.85z"/>
<path class="st3" d="M43.1,13.74l-1.5-6.5c0,0-0.02,0-0.03,0c-1.15,0-5.39,1.14-5.39,1.14l2.41,2.54l-0.52,4.49
	c0,0,1.46-0.38,2.12-0.56c0.76-0.21,1.48-0.41,2.1-0.55c0.47-0.1,0.84-0.13,1.17-0.15c0.07-0.01,0.24-0.02,0.31-0.02l-0.14-0.08
	L43.1,13.74z"/>
<path class="st3" d="M72.01,13.86l1.5-6.5c0,0,0.02,0,0.03,0c1.15,0,5.39,1.14,5.39,1.14l-2.41,2.54l0.52,4.49
	c0,0-1.46-0.38-2.12-0.56c-0.76-0.21-1.48-0.41-2.1-0.55c-0.47-0.1-0.84-0.13-1.17-0.15c-0.07-0.01-0.24-0.02-0.31-0.02l0.14-0.08
	L72.01,13.86z"/>
<path class="st2" d="M98.15,26.26c-0.32-0.06-0.64-0.12-0.96-0.18c0.08-0.82,0.18-1.66,0.26-2.47c0.42,0.12,0.84,0.27,1.26,0.4
	C98.54,24.74,98.33,25.5,98.15,26.26z"/>
<path class="st2" d="M9.6,27.67c3.9-2.92,8.29-3.95,8.29-3.95l-0.03,4.24l0.07,13.61h-3.38l-0.02-13.32l-1.79,0.72l0.03,12.58
	L9.6,41.57V27.67z"/>
<path class="st2" d="M34.91,41.57l0-18.84L33,23.03l0.04,18.54h-3.45l0.02-16.59c0-0.42-0.02-4.17-0.02-4.17
	c2.88-0.74,8.84-1.51,8.84-1.51l0.02,22.27H34.91z"/>
<path class="st2" d="M19.02,41.57l0.39-2.75c0,0,0.25-2.31,0.36-2.75l1.59-13.41c2.62-0.83,4.6-1.04,4.6-1.04l1.42,14.61l0.66,5.34
	h-3.03l-0.63-6.07h-1.76l-0.56,6.07H19.02 M23.45,26.35h-0.03l-0.57,6.54h1.2L23.45,26.35z"/>
<path class="st2" d="M39.74,41.57c0,0,0.44-5.06,0.55-5.5l1.47-17.19c1.78-0.21,4.62-0.48,4.62-0.48l2.14,17.84
	c0.07,0.35,0.66,5.33,0.66,5.33h-3.33l-0.48-6.96h-2.23l-0.38,6.96h-3.22 M44.2,23.75h-0.03l-0.8,7.78h1.67L44.2,23.75z"/>
<path class="st2" d="M53.44,35.78V21.92c0-0.41,0.05-3.87,0.05-3.87c4.35-0.23,8.49,0,8.49,0s-0.03,3.45-0.03,3.87v15.75h1.22v3.88
	H59.9V40.3h-4.23v1.25h-3.52V37.7l0.47-0.01c0,0,0.82-0.51,0.82-1.31V35.78z M58.7,20.78h-1.79v14.94c0,1-0.1,1.33-0.3,1.91h2.09
	V20.78z"/>
<path class="st2" d="M71.95,27.99l2.14-9.1c1.17,0.1,3.37,0.46,3.37,0.46l-2.91,10.75l2.59,11.48h-3.18l-1.66-9.56h-0.03l0.13,9.56
	h-3.67l0.03-8.71l-0.03-0.85l-1.39,9.56h-3.23l2.25-11.39l-2.09-7.08c-0.53-2.07-1.18-5.01-1.18-5.01c0.8-0.01,3.19,0.21,3.19,0.21
	L68.76,28l-0.03-9.62c0.64,0.01,3.47,0.34,3.47,0.34L71.95,27.99z"/>
<path class="st2" d="M81.73,41.65c-2.42,0-4.09-1.5-4.09-4.12V23.54c0-2.63,1.67-3.93,4.09-3.79c3.26,0.18,4.08,1.63,4.08,4.26
	v13.52C85.81,40.16,84.14,41.65,81.73,41.65 M81.73,38.52c0.7,0,0.66-0.75,0.66-0.83V23.82c0-0.07,0.04-0.82-0.66-0.82
	c-0.71,0-0.67,0.74-0.67,0.82v13.87C81.06,37.76,81.02,38.52,81.73,38.52z"/>
<polygon class="st2" points="92.81,41.57 92.79,34.5 90.87,34.5 90.88,41.57 87.27,41.57 87.27,21.1 90.86,22.07 90.87,30.81 
	92.79,30.81 92.79,22.41 96.38,23.45 96.38,41.57 "/>
<path class="st2" d="M101.92,28.86c-0.73,0-0.64,0.78-0.64,1.24v8.04c0,0.46-0.09,1.24,0.64,1.24c0.73,0,0.89-0.79,0.89-1.24v-1.27
	h2.69c0,0,0.1,2.56-0.63,3.54c-0.73,0.99-1.28,1.35-2.7,1.39c-1.41,0.04-2.76-0.27-3.46-0.93c-0.97-0.9-0.93-2.08-0.93-3.31v-8.06
	c0-1,0.13-2.27,0.95-2.95c0.76-0.63,2.01-0.6,3.34-0.55c1.34,0.05,3.03,0.71,3.25,1.89c0.22,1.18,0.18,3.34,0.18,3.34h-2.69V30.1
	C102.81,29.64,102.65,28.86,101.92,28.86"/>
<g>
	<path class="st4" d="M45.53,5.47l3.78-0.59l0.74,4.76l-0.96,0.15l-0.62-3.96l-1.86,0.29l0.62,3.96l-0.96,0.15L45.53,5.47z"/>
	<path class="st4" d="M50.59,4.73l0.91-0.07l0.26,3.2l1.69-3.35l0.97-0.08l0.38,4.8L53.88,9.3l-0.25-3.13l-1.69,3.29l-0.97,0.08
		L50.59,4.73z"/>
	<path class="st4" d="M55.69,4.37l0.97,0l0.02,4.01l1.89-0.01l-0.02-4.01l0.97,0l0.02,4.01l0.4,0l0.01,1.86l-0.81,0l0-1.05
		l-3.42,0.02L55.69,4.37z"/>
	<path class="st4" d="M60.91,4.4l0.97,0.08l-0.32,3.99l1.88,0.15l0.32-3.99l0.97,0.08L64.41,8.7l0.4,0.03l-0.15,1.85l-0.81-0.06
		l0.08-1.05L60.53,9.2L60.91,4.4z"/>
	<path class="st4" d="M69.57,10.37l-1.04-0.18l-0.22-1.15l-1.9-0.33l-0.58,1.01l-1.02-0.18l2.68-4.42l1.01,0.18L69.57,10.37z
		 M68.14,8.18L67.8,6.31l-0.95,1.65L68.14,8.18z"/>
</g>
<g>
	<g>
		<path class="st3" d="M108.83,21.15c-0.96,0-1.67-0.75-1.67-1.68c0-0.93,0.71-1.69,1.67-1.69c0.96,0,1.67,0.76,1.67,1.69
			C110.5,20.4,109.78,21.15,108.83,21.15z M108.83,18.03c-0.83,0-1.41,0.64-1.41,1.44c0,0.79,0.58,1.44,1.41,1.44
			c0.83,0,1.41-0.65,1.41-1.44C110.24,18.67,109.66,18.03,108.83,18.03z M109.4,20.24c-0.22,0-0.3-0.06-0.3-0.24V19.8
			c0-0.13-0.06-0.22-0.2-0.22h-0.29v0.64h-0.29V18.7h0.61c0.33,0,0.45,0.16,0.45,0.41v0.05c0,0.19-0.06,0.29-0.25,0.33
			c0.18,0.02,0.26,0.17,0.26,0.32v0.17c0,0.05,0.02,0.06,0.08,0.06v0.2H109.4z M109.09,19.11c0-0.1-0.04-0.18-0.18-0.18h-0.29v0.46
			h0.27c0.13,0,0.2-0.07,0.2-0.21V19.11z"/>
	</g>
</g>
</svg>