<svg width="13" height="14" viewBox="0 0 13 14" fill="none" xmlns="http://www.w3.org/2000/svg">
<path d="M11.3242 1.06791H10.1562V0.427166C10.1562 0.191264 9.97438 0 9.75 0C9.52562 0 9.34375 0.191264 9.34375 0.427166V1.06791H3.65625V0.427166C3.65625 0.191264 3.47438 0 3.25 0C3.02562 0 2.84375 0.191264 2.84375 0.427166V1.06791H1.67578C0.75174 1.06791 0 1.85836 0 2.82997V11.9073C0 12.8789 0.75174 13.6693 1.67578 13.6693H11.3242C12.2483 13.6693 13 12.8789 13 11.9073V2.82997C13 1.85836 12.2483 1.06791 11.3242 1.06791ZM1.67578 1.92225H2.84375V2.34941C2.84375 2.58532 3.02562 2.77658 3.25 2.77658C3.47438 2.77658 3.65625 2.58532 3.65625 2.34941V1.92225H9.34375V2.34941C9.34375 2.58532 9.52562 2.77658 9.75 2.77658C9.97438 2.77658 10.1562 2.58532 10.1562 2.34941V1.92225H11.3242C11.8002 1.92225 12.1875 2.32944 12.1875 2.82997V3.84449H0.8125V2.82997C0.8125 2.32944 1.19976 1.92225 1.67578 1.92225ZM11.3242 12.815H1.67578C1.19976 12.815 0.8125 12.4078 0.8125 11.9073V4.69883H12.1875V11.9073C12.1875 12.4078 11.8002 12.815 11.3242 12.815Z" fill="#202B49"/>
</svg>
