<svg width="21" height="19" viewBox="0 0 21 19" fill="none" xmlns="http://www.w3.org/2000/svg">
<path d="M5.25 18.6875C5.15353 18.6875 5.05641 18.6658 4.96519 18.6225C4.73878 18.5129 4.59375 18.2839 4.59375 18.0312V14.75H2.625C1.53956 14.75 0.65625 13.8667 0.65625 12.7812V2.28125C0.65625 1.19581 1.53956 0.3125 2.625 0.3125H18.375C19.4604 0.3125 20.3438 1.19581 20.3438 2.28125V12.7812C20.3438 13.8667 19.4604 14.75 18.375 14.75H10.4022L5.66016 18.5438C5.54138 18.6389 5.39634 18.6875 5.25 18.6875ZM2.625 1.625C2.26275 1.625 1.96875 1.91966 1.96875 2.28125V12.7812C1.96875 13.1428 2.26275 13.4375 2.625 13.4375H5.25C5.61291 13.4375 5.90625 13.7308 5.90625 14.0938V16.6663L9.76172 13.5812C9.87853 13.488 10.0223 13.4375 10.1719 13.4375H18.375C18.7372 13.4375 19.0312 13.1428 19.0312 12.7812V2.28125C19.0312 1.91966 18.7372 1.625 18.375 1.625H2.625Z" fill="#202B49"/>
<path d="M15.75 6.875H5.25C4.88709 6.875 4.59375 6.581 4.59375 6.21875C4.59375 5.8565 4.88709 5.5625 5.25 5.5625H15.75C16.1129 5.5625 16.4062 5.8565 16.4062 6.21875C16.4062 6.581 16.1129 6.875 15.75 6.875Z" fill="#202B49"/>
<path d="M10.5 9.5H5.25C4.88709 9.5 4.59375 9.206 4.59375 8.84375C4.59375 8.4815 4.88709 8.1875 5.25 8.1875H10.5C10.8629 8.1875 11.1562 8.4815 11.1562 8.84375C11.1562 9.206 10.8629 9.5 10.5 9.5Z" fill="#202B49"/>
</svg>
