<svg width="51" height="59" viewBox="0 0 51 59" fill="none" xmlns="http://www.w3.org/2000/svg">
<path d="M8.99924 27.6656C9.02734 27.6389 10.5323 24.9738 11.5912 20.1766C11.7027 19.617 11.8143 19.0306 11.8977 18.5243L7.49474 17.3516C7.49474 17.3516 8.46978 20.8162 7.43898 25.6135C6.49111 29.9843 5.09766 32.3828 5.09766 32.3828C5.09766 32.3828 7.07632 32.4896 9.89135 32.9692C8.74856 30.8903 7.77305 29.6911 7.77305 29.6911L8.6094 28.3853L8.99924 27.6656Z" fill="#5397AC"/>
<path d="M35.6132 49.3217C35.3845 49.2334 35.0133 49.1164 34.5565 48.9991C33.6135 48.7648 32.2419 48.5596 30.5848 48.5887C29.756 48.5887 28.8419 48.6474 27.8989 48.7648C26.9561 48.8821 25.9564 49.0578 24.9562 49.292C22.9276 49.7611 20.8135 50.4644 18.7562 51.2845C17.7277 51.7239 16.6704 52.1343 15.6703 52.5447C14.6418 52.9544 13.6133 53.3648 12.642 53.7163C10.6706 54.4488 8.75631 55.0933 7.04188 55.3283C6.18491 55.445 5.38461 55.4747 4.67029 55.4159C3.95599 55.3572 3.356 55.2399 2.84201 55.123C2.35637 55.0057 1.95621 54.8592 1.69922 54.7714C2.6417 56.1484 3.92765 57.8479 5.18478 58.6977C5.21312 58.7267 5.24193 58.7267 5.27027 58.7558C5.58493 58.8145 5.89909 58.8731 6.2704 58.9319C7.01354 59.0196 7.84169 59.0196 8.7275 58.9319C10.5274 58.7558 12.4989 58.1995 14.6134 57.5253C15.6703 57.2032 16.7275 56.8517 17.8132 56.4709C18.8993 56.0897 19.9849 55.709 21.0989 55.3283C23.2707 54.5661 25.5274 53.9506 27.6421 53.5699C28.6993 53.3944 29.7278 53.248 30.7274 53.1597C31.6991 53.0718 32.6416 53.0718 33.4991 53.1008C33.956 53.1008 34.4133 53.1305 34.8134 53.1892C35.042 51.8413 35.3562 50.5225 35.6992 49.3217C35.6421 49.3217 35.6421 49.3217 35.6132 49.3217Z" fill="#5397AC"/>
<path d="M5.77587 51.3117C-1.21601 51.4741 0.0980806 53.3664 0.0980806 53.3664C0.0980806 53.3664 1.49145 54.2316 4.75062 53.5016C6.56426 53.0961 9.5344 51.6903 9.5344 51.6903C9.5344 51.6903 8.7195 51.4468 7.30006 51.3389L7.45782 47.6349C8.77209 47.5266 10.2441 47.4456 11.8213 47.4723C11.8474 47.1478 11.8739 46.31 11.9 45.3908C10.0864 45.5527 8.53567 45.8505 7.53692 46.2017C7.51041 46.2017 7.48434 46.2286 7.45782 46.2286C7.45782 45.9855 7.43174 45.7421 7.40523 45.4986C7.40523 45.3908 7.37916 45.3098 7.37916 45.2015C7.37916 45.0663 7.35264 44.9037 7.35264 44.7686C7.35264 44.6608 7.32658 44.5256 7.32658 44.4173C7.32658 44.3089 7.30006 44.1739 7.30006 44.0659C7.27398 43.9308 7.27398 43.7956 7.24746 43.6873C7.24746 43.579 7.2214 43.498 7.2214 43.3902C7.19488 43.2545 7.1688 43.1193 7.1688 42.9842C7.1688 42.9033 7.1423 42.8221 7.1423 42.741C7.11622 42.6059 7.09014 42.4436 7.06362 42.3084C7.06362 42.2272 7.03756 42.1733 7.03756 42.0922C7.01104 41.957 6.98496 41.7948 6.95846 41.6596C6.95846 41.6055 6.93238 41.5244 6.93238 41.4703C6.90586 41.3351 6.87978 41.1729 6.85328 41.0377C6.85328 41.0106 6.8272 40.9566 6.8272 40.9296C6.45908 39.1991 5.95971 37.6851 5.46035 36.4414C3.04215 36.4685 0.96557 36.6576 0.96557 36.6576C0.96557 36.6576 1.67529 38.9017 1.46494 42.4707C1.25459 45.7153 0.0980806 48.9596 0.0980806 48.9596C0.0980806 48.9596 2.49019 48.2024 6.3539 47.7701L6.09096 51.3117C5.90713 51.3117 5.85453 51.3117 5.77587 51.3117Z" fill="#5397AC"/>
<path d="M51 34.5669L50.5502 34.0385L47.4035 36.3782C46.8695 34.8185 41.8679 26.0131 26.9751 16.2268V14.9186C27.2841 15.0444 27.6214 15.1702 27.9303 15.2959C32.3986 17.1577 35.4613 20.3024 35.4613 20.3024C35.4613 20.3024 35.4613 12.3776 34.0843 9.08199C34.0843 9.08199 31.3589 7.14483 27.7059 5.71082C27.4528 5.61021 27.2 5.50954 26.9472 5.43409V2.3145V2.33966C27.0035 2.33966 27.0314 2.33966 27.0876 2.36482C28.5209 2.49063 29.7852 1.58496 29.7852 1.58496C29.7852 1.58496 27.8185 1.40884 27.0876 0.327049C27.0314 0.251579 27.0035 0.176105 26.9472 0.100629L26.5821 0.0251581L26.4413 0L26.3571 2.38997L26.2164 5.18251C22.8164 4.02524 19.0232 3.16988 19.0232 3.16988C19.0232 3.16988 19.6411 4.10071 18.8267 7.67314C18.0679 10.9185 16.4098 12.6795 16.4098 12.6795C16.4098 12.6795 21.0462 12.906 25.9638 14.5664L25.9075 16.6293C21.496 14.8683 12.5604 12.4783 12.5604 12.4783C12.5604 12.4783 13.7968 16.1765 12.6167 21.3087C11.5206 25.9879 9.86287 28.856 9.86287 28.856C9.86287 28.856 17.4218 28.7051 25.4298 31.4473L25.3737 33.0322C17.0003 30.0385 9.07628 29.8623 9.07628 29.8623C9.07628 29.8623 13.9371 36.3027 14.0779 43.196C14.0779 43.196 24.2775 38.743 35.4892 43.8754C34.6181 43.9003 33.438 43.9757 31.8927 44.1015C31.4713 44.1518 31.0214 44.2023 30.5439 44.3031L30.6563 42.8689C24.0531 41.2337 18.1242 42.7682 15.0331 43.7242C14.9769 43.7495 14.9207 43.7495 14.8645 43.7745C14.8082 43.8 14.7804 43.8 14.7242 43.8249C14.3868 43.9257 14.0779 44.026 13.8247 44.1015C13.8247 44.1015 13.8247 44.1015 13.7968 44.1015C13.7127 44.1268 13.6281 44.1518 13.544 44.1773C13.347 44.2276 13.1784 44.2776 13.0381 44.3031C13.0381 40.6047 11.9142 37.309 10.7057 34.8437C7.22153 34.1643 4.83293 33.9378 4.83293 33.9378C4.83293 33.9378 8.20514 38.743 8.62653 45.737C8.62653 45.737 10.5375 45.3596 13.4032 45.1834L13.0381 50.7181C11.2679 51.4728 9.66635 52.152 8.28922 52.6551C2.13585 54.9948 0 53.5106 0 53.5106C0 53.5106 0.421404 54.1648 1.03981 54.9948C1.09603 55.0203 1.20847 55.0451 1.405 55.0956C1.65775 55.1459 2.02341 55.2467 2.50104 55.347C2.97866 55.4225 3.56873 55.5233 4.24288 55.5233C4.91751 55.5483 5.64788 55.4984 6.46281 55.347C7.27775 55.2214 8.12056 54.9948 9.02006 54.7433C9.91909 54.4917 10.8465 54.1648 11.8017 53.8125C12.757 53.4606 13.7406 53.0828 14.7242 52.7056C15.7077 52.3281 16.7192 51.9259 17.7307 51.5231C19.7821 50.7431 21.8895 50.0893 23.9408 49.6362C25.992 49.1834 27.9587 48.932 29.701 48.907C31.4429 48.8815 32.9042 49.0828 33.9155 49.3348C34.4216 49.4606 34.8152 49.5609 35.0957 49.6617H35.124C36.1639 46.8189 37.3441 44.7053 37.7092 44.1268V44.1015C37.7092 44.0765 37.7371 44.0765 37.7371 44.0515V44.0261C37.7371 44.0012 37.7653 44.0012 37.7653 43.9757V43.9507C37.7653 43.9507 37.8495 43.8498 37.962 43.8754C38.0744 43.9257 38.0465 44.0261 38.0465 44.0261C38.0465 44.0261 37.9902 44.1268 37.9058 44.2776V44.3031C37.8779 44.3281 37.8779 44.3784 37.8495 44.4034C37.8495 44.4287 37.8216 44.4287 37.8216 44.4537C37.7932 44.4792 37.7932 44.5042 37.7653 44.5546C37.7653 44.5795 37.7371 44.605 37.7371 44.6299C37.7371 44.6548 37.7092 44.6804 37.7092 44.7053C37.6808 44.7557 37.6808 44.7812 37.653 44.8312C37.653 44.8565 37.6246 44.8565 37.6246 44.8815C37.6246 44.907 37.5967 44.9318 37.5967 44.9568C36.8101 46.542 35.2643 50.014 34.5902 54.039C35.0957 54.0895 35.5455 54.1898 35.939 54.2656C36.8664 51.6994 38.6929 49.0828 39.9291 47.9757C39.7604 46.2904 39.0859 45.1834 38.6082 44.605L51 34.5669ZM23.9686 46.2904C21.2711 45.8376 18.3207 45.6865 15.6515 45.737L15.5391 47.8754C17.0561 47.9259 18.377 47.9757 19.5009 48.0262C17.8993 48.6804 16.3257 49.3597 14.8082 49.9884L15.0053 45.1081C17.8432 45.0326 21.3556 45.1584 24.8676 45.9634C24.5871 46.0637 24.2775 46.1646 23.9686 46.2904ZM27.0035 33.6612V32.0259C35.0117 35.1454 38.9173 39.3973 38.9173 39.3973C38.9173 39.3973 38.9173 37.133 38.7207 34.1643C37.7932 33.9378 36.8101 33.7617 35.742 33.7367C35.0117 26.4409 30.2348 20.1515 26.919 17.1073V16.579C26.9472 16.6042 26.9751 16.6293 27.0035 16.6545C34.0281 23.2207 35.8265 28.6296 36.4728 32.9819C40.7157 33.5354 45.0432 35.4222 47.066 36.6046L38.4396 43.0199L38.6645 40.3784C38.6645 40.3532 34.4777 36.6298 27.0035 33.6612Z" fill="#5397AC"/>
</svg>
