<svg width="5" height="10" viewBox="0 0 5 10" fill="none" xmlns="http://www.w3.org/2000/svg">
<path d="M4.2861 8.92084L4.14637 9.49201C3.7272 9.65746 3.39237 9.78338 3.14303 9.86996C2.89343 9.9568 2.6034 10 2.27296 10C1.76551 10 1.3708 9.87569 1.08929 9.62878C0.807783 9.38088 0.666983 9.06674 0.666983 8.68566C0.666983 8.53814 0.6772 8.38641 0.698441 8.2318C0.719861 8.07702 0.753919 7.9027 0.800523 7.70786L1.32438 5.85372C1.37098 5.67617 1.41059 5.50795 1.44232 5.34886C1.4745 5.19076 1.49 5.0453 1.49 4.91436C1.49 4.67758 1.44098 4.51195 1.34338 4.41883C1.24578 4.32598 1.05954 4.27884 0.783046 4.27884C0.647624 4.27884 0.508438 4.30053 0.366563 4.34247C0.22406 4.3846 0.102261 4.42528 0 4.46311L0.140083 3.89148C0.483254 3.75176 0.811278 3.63211 1.12505 3.53281C1.43883 3.43323 1.7353 3.3834 2.01574 3.3834C2.51969 3.3834 2.90857 3.5052 3.18166 3.7488C3.45474 3.99258 3.59124 4.30859 3.59124 4.69801C3.59124 4.77858 3.58228 4.92055 3.56301 5.12346C3.54419 5.32681 3.50915 5.51314 3.45806 5.68262L2.93645 7.52933C2.8937 7.67766 2.85525 7.84723 2.82182 8.03804C2.78731 8.22759 2.77082 8.37242 2.77082 8.46958C2.77082 8.71479 2.82549 8.88221 2.9351 8.9712C3.04552 9.0602 3.2357 9.10448 3.50583 9.10448C3.63265 9.10448 3.77694 9.08198 3.93728 9.0378C4.09717 8.99361 4.21377 8.9548 4.2861 8.92084ZM4.41838 1.1678C4.41838 1.48955 4.29712 1.76434 4.05343 1.99028C3.81037 2.21703 3.51748 2.3305 3.17485 2.3305C2.83114 2.3305 2.53753 2.21703 2.29169 1.99028C2.0463 1.76425 1.92333 1.48955 1.92333 1.1678C1.92333 0.84668 2.0463 0.571444 2.29169 0.342633C2.53708 0.114181 2.83123 0 3.17485 0C3.51739 0 3.81037 0.11445 4.05343 0.342633C4.2973 0.571444 4.41838 0.846769 4.41838 1.1678Z" fill="#C2C2C2"/>
</svg>
