<svg width="16" height="16" viewBox="0 0 16 16" fill="none" xmlns="http://www.w3.org/2000/svg">
<path d="M14.7515 7.44023C14.6075 7.44023 14.4637 7.49507 14.3538 7.60504L10.5749 11.3836C10.3552 11.6033 10.3552 11.9594 10.5749 12.179C10.7946 12.3987 11.1506 12.3987 11.3703 12.179L15.1492 8.40041C15.3688 8.18076 15.3688 7.8247 15.1492 7.60504C15.0392 7.49535 14.8955 7.44023 14.7515 7.44023Z" fill="#D1D1D1"/>
<path d="M10.9726 3.65898C10.8286 3.65898 10.6849 3.71382 10.5749 3.82379C10.3552 4.04345 10.3552 4.39951 10.5749 4.61916L14.3538 8.39776C14.5734 8.61741 14.9295 8.61741 15.1492 8.39776C15.3688 8.1781 15.3688 7.82204 15.1492 7.60238L11.3706 3.82379C11.2606 3.7141 11.1166 3.65898 10.9726 3.65898Z" fill="#D1D1D1"/>
<path d="M14.75 7.4375H4.0625C3.752 7.4375 3.5 7.6895 3.5 8C3.5 8.3105 3.752 8.5625 4.0625 8.5625H14.75C15.0605 8.5625 15.3125 8.3105 15.3125 8C15.3125 7.6895 15.0605 7.4375 14.75 7.4375Z" fill="#D1D1D1"/>
<path d="M1.8125 0.6875C1.19206 0.6875 0.6875 1.19206 0.6875 1.8125C0.6875 2.123 0.9395 2.375 1.25 2.375C1.5605 2.375 1.8125 2.123 1.8125 1.8125V1.81166C2.123 1.81166 2.375 1.56022 2.375 1.24944C2.375 0.938657 2.123 0.6875 1.8125 0.6875Z" fill="#D1D1D1"/>
<path d="M5.75 0.6875H1.8125C1.502 0.6875 1.25 0.9395 1.25 1.25C1.25 1.5605 1.502 1.8125 1.8125 1.8125H5.75C6.0605 1.8125 6.3125 1.5605 6.3125 1.25C6.3125 0.9395 6.0605 0.6875 5.75 0.6875Z" fill="#D1D1D1"/>
<path d="M1.25 1.25C0.9395 1.25 0.6875 1.502 0.6875 1.8125V14.1875C0.6875 14.498 0.9395 14.75 1.25 14.75C1.5605 14.75 1.8125 14.498 1.8125 14.1875V1.8125C1.8125 1.502 1.5605 1.25 1.25 1.25Z" fill="#D1D1D1"/>
<path d="M1.24972 13.625C0.938938 13.625 0.6875 13.877 0.6875 14.1875C0.6875 14.8079 1.19206 15.3125 1.8125 15.3125C2.123 15.3125 2.375 15.0605 2.375 14.75C2.375 14.4395 2.123 14.1875 1.8125 14.1875H1.81166C1.81166 13.877 1.5605 13.625 1.24972 13.625Z" fill="#D1D1D1"/>
<path d="M5.75 14.1875H1.8125C1.502 14.1875 1.25 14.4395 1.25 14.75C1.25 15.0605 1.502 15.3125 1.8125 15.3125H5.75C6.0605 15.3125 6.3125 15.0605 6.3125 14.75C6.3125 14.4395 6.0605 14.1875 5.75 14.1875Z" fill="#D1D1D1"/>
</svg>
