<svg width="24" height="24" viewBox="0 0 24 24" fill="none" xmlns="http://www.w3.org/2000/svg">
<path d="M13.3846 10.2362C13.1763 10.4455 12.9477 10.6337 12.7031 10.8007V9.30164H12.7531C13.1415 9.30164 13.4562 8.98688 13.4562 8.59851C13.4562 8.21014 13.1415 7.89539 12.7531 7.89539H12.7031V7.46875C12.7031 7.08057 12.3884 6.76562 12 6.76562C11.6116 6.76562 11.2969 7.08057 11.2969 7.46875V7.89539H11.2469C10.8585 7.89539 10.5438 8.21014 10.5438 8.59851C10.5438 8.98688 10.8585 9.30164 11.2469 9.30164H11.2969V10.8007C11.0519 10.6335 10.8235 10.4453 10.6153 10.2362C10.3411 9.961 9.89593 9.96027 9.6209 10.2344C9.34588 10.5085 9.34496 10.9536 9.61907 11.2286C10.0845 11.6957 10.6236 12.0848 11.2247 12.3868C11.4748 12.5107 11.6841 12.6157 11.6847 12.616C11.7839 12.6658 11.892 12.6907 12 12.6907C12.108 12.6907 12.2161 12.6658 12.3153 12.616C12.316 12.6157 12.5251 12.5107 12.7787 12.3851C13.3764 12.0848 13.9155 11.6957 14.3809 11.2288C14.655 10.9536 14.6543 10.5085 14.3791 10.2344C14.1041 9.96027 13.6589 9.96118 13.3846 10.2362V10.2362Z" fill="#202B49"/>
<path d="M24 10.8572C24 9.93329 23.6021 9.05585 22.9092 8.45068L21.704 7.39563C21.7039 7.39563 21.7037 7.39545 21.7035 7.39526C19.014 5.04456 15.5678 3.75 12 3.75C8.43219 3.75 4.98596 5.04456 2.29596 7.39563L1.09149 8.44995C0.397888 9.05585 0 9.93329 0 10.8578C0 11.7735 0.356873 12.6334 1.00433 13.2784L3.01245 15.2878V17.2562C3.01245 17.5228 3.16333 17.7665 3.40192 17.8856C3.40192 17.8856 3.40192 17.8856 4.55347 18.4605C6.85382 19.6091 9.4281 20.2189 12 20.2189C14.5719 20.2189 17.1469 19.6108 19.4465 18.4605C19.4465 18.4605 20.5979 17.8857 20.5981 17.8856C20.8367 17.7665 20.9875 17.523 20.9875 17.2562V15.2878L22.9948 13.2794C23.6431 12.6335 24 11.7735 24 10.8572V10.8572ZM19.5813 16.8214L18.8176 17.2028C16.712 18.256 14.3547 18.8124 12 18.8124C9.64526 18.8124 7.28796 18.2558 5.18243 17.2028L4.4187 16.8214V15.7H19.5813V16.8214ZM22.0014 12.284L19.9929 14.2938H4.00708L1.99768 12.2831C1.61627 11.9031 1.40625 11.3969 1.40625 10.8572C1.40625 10.3394 1.62872 9.84796 2.01764 9.50812L3.22174 8.45416C5.65503 6.32739 8.77258 5.15625 12 5.15625C15.2274 5.15625 18.3448 6.32739 20.7781 8.45398L21.9833 9.50885C22.3713 9.84778 22.5938 10.3392 22.5938 10.8578C22.5938 11.3969 22.3837 11.9031 22.0014 12.284Z" fill="#202B49"/>
</svg>
