<svg width="14" height="18" viewBox="0 0 14 18" fill="none" xmlns="http://www.w3.org/2000/svg">
<path d="M12.6868 11.2848C12.3071 10.9805 11.8627 10.7921 11.4135 10.654V4.35674C11.4135 3.01602 10.9323 1.88582 10.022 1.0883C9.22097 0.386508 8.14747 0 6.99927 0C5.85107 0 4.77757 0.386508 3.97653 1.08826C3.0662 1.88578 2.58505 3.01598 2.58505 4.3567V10.654C2.13589 10.7921 1.69148 10.9805 1.31172 11.2848C0.576254 11.8742 0.21875 12.7763 0.21875 14.0427V17.5781C0.21875 17.8111 0.407645 18 0.640625 18H13.358C13.591 18 13.7799 17.8111 13.7799 17.5781V14.0427C13.7798 12.7763 13.4223 11.8742 12.6868 11.2848ZM3.42876 4.35674C3.42876 1.94309 5.2796 0.84375 6.99927 0.84375C7.94286 0.84375 8.81889 1.15597 9.46604 1.7229C10.1881 2.3555 10.5698 3.26623 10.5698 4.3567V10.4358C10.5591 10.4334 10.5483 10.4308 10.5377 10.4284C9.33111 10.149 8.69109 9.956 8.60749 9.00074C8.8327 8.79226 9.03981 8.53938 9.22413 8.24498C9.85055 7.24437 10.1817 5.79769 10.1817 4.06139C10.1817 3.84103 10.0121 3.65783 9.79244 3.64078C9.0627 3.58418 8.36604 3.27196 7.83082 2.76156C7.73312 2.66839 7.59668 2.62765 7.46393 2.65187C7.33111 2.67609 7.21794 2.76244 7.15944 2.88411C6.62545 3.99516 5.48899 4.71305 4.26418 4.71308L4.24172 4.71301C4.12974 4.71154 4.02125 4.75632 3.94148 4.8355C3.86171 4.9147 3.81689 5.02246 3.81689 5.13485C3.81689 6.46246 4.13175 7.60707 4.7274 8.44502C4.91946 8.7152 5.13817 8.94618 5.3754 9.13373C5.24483 9.97516 4.60938 10.1624 3.46083 10.4283C3.45024 10.4308 3.43945 10.4333 3.4288 10.4358L3.42876 4.35674ZM8.50895 7.7973C8.08134 8.48039 7.51656 8.85653 6.91845 8.85646C5.88612 8.85632 4.79244 7.69598 4.67164 5.53588C5.88373 5.41086 6.98827 4.73456 7.65757 3.71394C8.15496 4.07693 8.72917 4.3232 9.33259 4.43141C9.28088 6.19741 8.86308 7.23168 8.50895 7.7973ZM6.14279 9.56391C6.14279 9.56391 6.65474 9.70017 6.91813 9.70021C7.23798 9.70021 7.54788 9.6345 7.84059 9.50804C7.97232 10.0116 8.25618 10.3977 8.70147 10.6795C8.97663 10.8536 9.29357 10.973 9.62393 11.0688C9.26991 12.3599 8.08138 12.942 6.99923 12.942C5.91709 12.942 4.7286 12.3599 4.37454 11.0688C4.7049 10.9729 5.02187 10.8536 5.29704 10.6795C5.72573 10.4082 6.14279 9.56391 6.14279 9.56391ZM12.9361 17.1562H11.4135V14.8899C11.4135 14.6569 11.2246 14.468 10.9916 14.468C10.7586 14.468 10.5697 14.6569 10.5697 14.8899V17.1562H3.42876V14.8899C3.42876 14.6569 3.23987 14.468 3.00689 14.468C2.77391 14.468 2.58501 14.6569 2.58501 14.8899V17.1562H1.06247V14.0427C1.06247 11.9003 2.2075 11.5858 3.55554 11.2726C3.75252 12.0104 4.16852 12.6294 4.77268 13.0765C5.39059 13.5339 6.18132 13.7858 6.99923 13.7858C7.81714 13.7858 8.60791 13.5339 9.22579 13.0765C9.82995 12.6293 10.246 12.0104 10.4429 11.2726C11.791 11.5858 12.9361 11.9002 12.9361 14.0427V17.1562Z" fill="white"/>
</svg>
