<svg width="24" height="15" viewBox="0 0 24 15" fill="none" xmlns="http://www.w3.org/2000/svg">
<path d="M20.6554 9.26832C21.4515 10.0132 22.2918 10.714 23.0058 11.534C23.3212 11.8984 23.6198 12.2744 23.8483 12.6973C24.172 13.2984 23.8788 13.96 23.3164 13.9959L19.82 13.9943C18.9182 14.066 18.1988 13.7182 17.5939 13.1273C17.1098 12.6547 16.6615 12.1518 16.1961 11.6633C16.0052 11.4637 15.8055 11.2758 15.5669 11.1273C15.0896 10.8304 14.6753 10.9213 14.4025 11.3984C14.1247 11.8836 14.0617 12.4209 14.0344 12.9617C13.997 13.7507 13.7481 13.9581 12.9211 13.9942C11.1537 14.0741 9.47629 13.8179 7.91802 12.9634C6.54421 12.2102 5.47893 11.1467 4.55165 9.94287C2.74635 7.59871 1.36377 5.0228 0.12121 2.37475C-0.158493 1.77814 0.0460693 1.45789 0.732976 1.44653C1.87358 1.42528 3.01405 1.42681 4.15602 1.445C4.61962 1.45151 4.92651 1.70631 5.10552 2.12602C5.72263 3.58018 6.47774 4.96369 7.42555 6.24607C7.67798 6.58748 7.93537 6.92893 8.30184 7.16922C8.7073 7.43529 9.01602 7.34711 9.20676 6.91424C9.32779 6.63977 9.3808 6.34414 9.40808 6.05021C9.49846 5.03889 9.51037 4.02927 9.35188 3.02149C9.25457 2.39254 8.88491 1.98537 8.23002 1.86637C7.89585 1.80568 7.94558 1.6865 8.1074 1.50371C8.38841 1.18845 8.65274 0.992188 9.17966 0.992188H13.1311C13.7532 1.10984 13.8913 1.37766 13.9765 1.9775L13.9799 6.18385C13.9731 6.41606 14.1009 7.1052 14.5374 7.25888C14.8867 7.36831 15.1169 7.10049 15.3266 6.88823C16.2726 5.92596 16.9479 4.78872 17.5511 3.61113C17.8188 3.09332 18.049 2.5556 18.2721 2.01829C18.4374 1.61961 18.6967 1.42344 19.1653 1.43211L22.9684 1.43534C23.0812 1.43534 23.1953 1.43691 23.3045 1.45484C23.9453 1.55951 24.121 1.82369 23.923 2.4234C23.6112 3.36429 23.0044 4.1484 22.4111 4.9361C21.7768 5.77709 21.0985 6.58932 20.4696 7.43529C19.8917 8.20794 19.9376 8.59733 20.6554 9.26832Z" fill="#436EAB"/>
</svg>
