<svg width="22" height="21" viewBox="0 0 22 21" fill="none" xmlns="http://www.w3.org/2000/svg">
<path d="M21.9339 6.17093C21.8803 5.05325 21.6944 4.28998 21.4224 3.62219C21.1463 2.92156 20.7133 2.28694 20.1537 1.76239C19.6043 1.22823 18.9393 0.814705 18.2053 0.550987C17.5056 0.291595 16.7061 0.114235 15.5352 0.063446C14.3621 0.0121765 13.9873 0 11 0C8.01266 0 7.63786 0.0121765 6.46478 0.0631256C5.29388 0.114235 4.49443 0.291756 3.79468 0.551308C3.06068 0.814865 2.39584 1.22823 1.84631 1.76239C1.28671 2.28678 0.8535 2.9214 0.577225 3.62203C0.305481 4.28998 0.119675 5.05325 0.0664673 6.17077C0.0127563 7.29069 0 7.64829 0 10.4998C0 13.3515 0.0127563 13.7093 0.0664673 14.8291C0.119843 15.9466 0.305817 16.7099 0.577728 17.3778C0.853836 18.0783 1.28688 18.7131 1.84648 19.2374C2.39584 19.7716 3.06085 20.185 3.79485 20.4485C4.49443 20.7082 5.29405 20.8856 6.46495 20.9367C7.6382 20.9878 8.01283 20.9998 11.0002 20.9998C13.9875 20.9998 14.3623 20.9878 15.5354 20.9367C16.7063 20.8856 17.5057 20.7082 18.2055 20.4485C19.683 19.9032 20.8511 18.7882 21.4224 17.3778C21.6945 16.7099 21.8803 15.9466 21.9339 14.8291C21.9872 13.7092 22 13.3515 22 10.5C22 7.64829 21.9872 7.29069 21.9339 6.17093ZM19.9538 14.743C19.9049 15.7668 19.7257 16.3228 19.5751 16.6927C19.205 17.6085 18.4469 18.3322 17.4874 18.6855C17.0999 18.8292 16.5175 19.0003 15.4449 19.047C14.2853 19.0976 13.9373 19.1082 11 19.1082C8.06252 19.1082 7.71474 19.0976 6.55492 19.047C5.48254 19.0003 4.90012 18.8292 4.51239 18.6855C4.0347 18.5171 3.60249 18.2487 3.24767 17.9C2.88226 17.5613 2.60112 17.1489 2.42471 16.6927C2.27415 16.3228 2.09489 15.7668 2.04605 14.743C1.99318 13.6359 1.98193 13.3038 1.98193 10.5002C1.98193 7.69636 1.99318 7.36439 2.04605 6.25713C2.09506 5.23334 2.27415 4.67738 2.42471 4.30744C2.60112 3.8513 2.88243 3.43874 3.24767 3.10004C3.60249 2.75125 4.0347 2.48289 4.51256 2.31466C4.90012 2.17078 5.48254 1.99983 6.55508 1.95305C7.7149 1.90258 8.06285 1.89185 11 1.89185H10.9998C13.937 1.89185 14.2849 1.90258 15.4449 1.95321C16.5175 1.99983 17.0997 2.17094 17.4874 2.31466C17.9651 2.48305 18.3973 2.75141 18.7522 3.10004C19.1176 3.43874 19.3987 3.8513 19.575 4.30744C19.7257 4.67738 19.9049 5.23334 19.9538 6.25713C20.0067 7.36423 20.0179 7.69636 20.0179 10.5C20.0179 13.3038 20.0068 13.6358 19.9538 14.743Z" fill="url(#paint0_linear_188_3628)"/>
<path d="M11.0001 5.10938C7.88051 5.10938 5.35156 7.52353 5.35156 10.5013C5.35156 13.4791 7.88051 15.8931 11.0001 15.8931C14.1199 15.8931 16.6488 13.4791 16.6488 10.5013C16.6488 7.52353 14.1199 5.10938 11.0001 5.10938ZM11.0001 14.0013C8.9752 14.0011 7.3335 12.4342 7.33366 10.5012C7.33366 8.56831 8.9752 7.00122 11.0003 7.00122C13.0253 7.00138 14.6669 8.56831 14.6669 10.5012C14.6669 12.4342 13.0252 14.0013 11.0001 14.0013Z" fill="url(#paint1_linear_188_3628)"/>
<path d="M18.1908 4.89292C18.1908 5.58875 17.5999 6.15287 16.8709 6.15287C16.1418 6.15287 15.5508 5.58875 15.5508 4.89292C15.5508 4.19694 16.1418 3.63281 16.8709 3.63281C17.5999 3.63281 18.1908 4.19694 18.1908 4.89292Z" fill="url(#paint2_linear_188_3628)"/>
<defs>
<linearGradient id="paint0_linear_188_3628" x1="1.8462" y1="19.2375" x2="19.3027" y2="0.949743" gradientUnits="userSpaceOnUse">
<stop stop-color="#FFD600"/>
<stop offset="0.5" stop-color="#FF0100"/>
<stop offset="1" stop-color="#D800B9"/>
</linearGradient>
<linearGradient id="paint1_linear_188_3628" x1="7.00603" y1="14.3139" x2="14.623" y2="6.33416" gradientUnits="userSpaceOnUse">
<stop stop-color="#FF6400"/>
<stop offset="0.5" stop-color="#FF0100"/>
<stop offset="1" stop-color="#FD0056"/>
</linearGradient>
<linearGradient id="paint2_linear_188_3628" x1="15.9375" y1="5.78378" x2="17.7174" y2="3.91908" gradientUnits="userSpaceOnUse">
<stop stop-color="#F30072"/>
<stop offset="1" stop-color="#E50097"/>
</linearGradient>
</defs>
</svg>
